<svg class="main-svg" xmlns="http://www.w3.org/2000/svg" xmlns:xlink="http://www.w3.org/1999/xlink" width="900" height="450" style="" viewBox="0 0 900 450"><rect x="0" y="0" width="900" height="450" style="fill: rgb(255, 255, 255); fill-opacity: 1;"/><defs id="defs-0cf704"><g class="clips"><clipPath id="clip0cf704xyplot" class="plotclip"><rect width="701" height="400"/></clipPath><clipPath class="axesclip" id="clip0cf704x"><rect x="58" y="0" width="701" height="450"/></clipPath><clipPath class="axesclip" id="clip0cf704y"><rect x="0" y="9" width="900" height="400"/></clipPath><clipPath class="axesclip" id="clip0cf704xy"><rect x="58" y="9" width="701" height="400"/></clipPath></g><g class="gradients"/></defs><g class="bglayer"/><g class="layer-below"><g class="imagelayer"/><g class="shapelayer"/></g><g class="cartesianlayer"><g class="subplot xy"><g class="layer-subplot"><g class="shapelayer"/><g class="imagelayer"/></g><g class="gridlayer"><g class="x"><path class="xgrid crisp" transform="translate(108.93,0)" d="M0,9v400" style="stroke: rgb(232, 232, 232); stroke-opacity: 1; stroke-width: 1px;"/><path class="xgrid crisp" transform="translate(158.86,0)" d="M0,9v400" style="stroke: rgb(232, 232, 232); stroke-opacity: 1; stroke-width: 1px;"/><path class="xgrid crisp" transform="translate(208.79,0)" d="M0,9v400" style="stroke: rgb(232, 232, 232); stroke-opacity: 1; stroke-width: 1px;"/><path class="xgrid crisp" transform="translate(258.71000000000004,0)" d="M0,9v400" style="stroke: rgb(232, 232, 232); stroke-opacity: 1; stroke-width: 1px;"/><path class="xgrid crisp" transform="translate(308.64,0)" d="M0,9v400" style="stroke: rgb(232, 232, 232); stroke-opacity: 1; stroke-width: 1px;"/><path class="xgrid crisp" transform="translate(358.57,0)" d="M0,9v400" style="stroke: rgb(232, 232, 232); stroke-opacity: 1; stroke-width: 1px;"/><path class="xgrid crisp" transform="translate(408.5,0)" d="M0,9v400" style="stroke: rgb(232, 232, 232); stroke-opacity: 1; stroke-width: 1px;"/><path class="xgrid crisp" transform="translate(458.43,0)" d="M0,9v400" style="stroke: rgb(232, 232, 232); stroke-opacity: 1; stroke-width: 1px;"/><path class="xgrid crisp" transform="translate(508.36,0)" d="M0,9v400" style="stroke: rgb(232, 232, 232); stroke-opacity: 1; stroke-width: 1px;"/><path class="xgrid crisp" transform="translate(558.29,0)" d="M0,9v400" style="stroke: rgb(232, 232, 232); stroke-opacity: 1; stroke-width: 1px;"/><path class="xgrid crisp" transform="translate(608.21,0)" d="M0,9v400" style="stroke: rgb(232, 232, 232); stroke-opacity: 1; stroke-width: 1px;"/><path class="xgrid crisp" transform="translate(658.14,0)" d="M0,9v400" style="stroke: rgb(232, 232, 232); stroke-opacity: 1; stroke-width: 1px;"/><path class="xgrid crisp" transform="translate(708.07,0)" d="M0,9v400" style="stroke: rgb(232, 232, 232); stroke-opacity: 1; stroke-width: 1px;"/></g><g class="y"><path class="ygrid crisp" transform="translate(0,359)" d="M58,0h701" style="stroke: rgb(232, 232, 232); stroke-opacity: 1; stroke-width: 1px;"/><path class="ygrid crisp" transform="translate(0,309)" d="M58,0h701" style="stroke: rgb(232, 232, 232); stroke-opacity: 1; stroke-width: 1px;"/><path class="ygrid crisp" transform="translate(0,259)" d="M58,0h701" style="stroke: rgb(232, 232, 232); stroke-opacity: 1; stroke-width: 1px;"/><path class="ygrid crisp" transform="translate(0,209)" d="M58,0h701" style="stroke: rgb(232, 232, 232); stroke-opacity: 1; stroke-width: 1px;"/><path class="ygrid crisp" transform="translate(0,159)" d="M58,0h701" style="stroke: rgb(232, 232, 232); stroke-opacity: 1; stroke-width: 1px;"/><path class="ygrid crisp" transform="translate(0,109)" d="M58,0h701" style="stroke: rgb(232, 232, 232); stroke-opacity: 1; stroke-width: 1px;"/><path class="ygrid crisp" transform="translate(0,59)" d="M58,0h701" style="stroke: rgb(232, 232, 232); stroke-opacity: 1; stroke-width: 1px;"/></g></g><g class="zerolinelayer"><path class="yzl zl crisp" transform="translate(0,409)" d="M58,0h701" style="stroke: rgb(171, 171, 171); stroke-opacity: 1; stroke-width: 1px;"/></g><path class="xlines-below"/><path class="ylines-below"/><g class="overlines-below"/><g class="xaxislayer-below"/><g class="yaxislayer-below"/><g class="overaxes-below"/><g class="plot" transform="translate(58, 9)" clip-path="url('#clip0cf704xyplot')"><g class="barlayer mlayer"><g class="trace bars" shape-rendering="crispEdges" style="opacity: 1;"><g class="points"><g class="point"><path d="M8.49,400V400H43.44V400Z" style="vector-effect: non-scaling-stroke; opacity: 1; stroke-width: 0px; fill: rgb(62, 64, 83); fill-opacity: 1;"/></g><g class="point"><path d="M58.42,400V400H93.37V400Z" style="vector-effect: non-scaling-stroke; opacity: 1; stroke-width: 0px; fill: rgb(62, 64, 83); fill-opacity: 1;"/></g><g class="point"><path d="M108.35,400V375.8H143.3V400Z" style="vector-effect: non-scaling-stroke; opacity: 1; stroke-width: 0px; fill: rgb(62, 64, 83); fill-opacity: 1;"/></g><g class="point"><path d="M158.27,400V400H193.22V400Z" style="vector-effect: non-scaling-stroke; opacity: 1; stroke-width: 0px; fill: rgb(62, 64, 83); fill-opacity: 1;"/></g><g class="point"><path d="M208.2,400V20.5H243.15V400Z" style="vector-effect: non-scaling-stroke; opacity: 1; stroke-width: 0px; fill: rgb(62, 64, 83); fill-opacity: 1;"/></g><g class="point"><path d="M258.13,400V400H293.08V400Z" style="vector-effect: non-scaling-stroke; opacity: 1; stroke-width: 0px; fill: rgb(62, 64, 83); fill-opacity: 1;"/></g><g class="point"><path d="M308.06,400V212.8H343.01V400Z" style="vector-effect: non-scaling-stroke; opacity: 1; stroke-width: 0px; fill: rgb(62, 64, 83); fill-opacity: 1;"/></g><g class="point"><path d="M357.99,400V400H392.94V400Z" style="vector-effect: non-scaling-stroke; opacity: 1; stroke-width: 0px; fill: rgb(62, 64, 83); fill-opacity: 1;"/></g><g class="point"><path d="M407.92,400V400H442.87V400Z" style="vector-effect: non-scaling-stroke; opacity: 1; stroke-width: 0px; fill: rgb(62, 64, 83); fill-opacity: 1;"/></g><g class="point"><path d="M457.85,400V400H492.8V400Z" style="vector-effect: non-scaling-stroke; opacity: 1; stroke-width: 0px; fill: rgb(62, 64, 83); fill-opacity: 1;"/></g><g class="point"><path d="M507.78,400V400H542.72V400Z" style="vector-effect: non-scaling-stroke; opacity: 1; stroke-width: 0px; fill: rgb(62, 64, 83); fill-opacity: 1;"/></g><g class="point"><path d="M557.7,400V222H592.65V400Z" style="vector-effect: non-scaling-stroke; opacity: 1; stroke-width: 0px; fill: rgb(62, 64, 83); fill-opacity: 1;"/></g><g class="point"><path d="M607.63,400V135.8H642.58V400Z" style="vector-effect: non-scaling-stroke; opacity: 1; stroke-width: 0px; fill: rgb(62, 64, 83); fill-opacity: 1;"/></g><g class="point"><path d="M657.56,400V382H692.51V400Z" style="vector-effect: non-scaling-stroke; opacity: 1; stroke-width: 0px; fill: rgb(62, 64, 83); fill-opacity: 1;"/></g></g></g><g class="trace bars" shape-rendering="crispEdges" style="opacity: 1;"><g class="points"><g class="point"><path d="M8.49,400V400H43.44V400Z" style="vector-effect: non-scaling-stroke; opacity: 1; stroke-width: 0px; fill: rgb(241, 88, 84); fill-opacity: 1;"/></g><g class="point"><path d="M58.42,400V400H93.37V400Z" style="vector-effect: non-scaling-stroke; opacity: 1; stroke-width: 0px; fill: rgb(241, 88, 84); fill-opacity: 1;"/></g><g class="point"><path d="M108.35,375.8V326.1H143.3V375.8Z" style="vector-effect: non-scaling-stroke; opacity: 1; stroke-width: 0px; fill: rgb(241, 88, 84); fill-opacity: 1;"/></g><g class="point"><path d="M158.27,400V400H193.22V400Z" style="vector-effect: non-scaling-stroke; opacity: 1; stroke-width: 0px; fill: rgb(241, 88, 84); fill-opacity: 1;"/></g><g class="point"><path d="M208.2,20.5V20.5H243.15V20.5Z" style="vector-effect: non-scaling-stroke; opacity: 1; stroke-width: 0px; fill: rgb(241, 88, 84); fill-opacity: 1;"/></g><g class="point"><path d="M258.13,400V400H293.08V400Z" style="vector-effect: non-scaling-stroke; opacity: 1; stroke-width: 0px; fill: rgb(241, 88, 84); fill-opacity: 1;"/></g><g class="point"><path d="M308.06,212.8V212.8H343.01V212.8Z" style="vector-effect: non-scaling-stroke; opacity: 1; stroke-width: 0px; fill: rgb(241, 88, 84); fill-opacity: 1;"/></g><g class="point"><path d="M357.99,400V400H392.94V400Z" style="vector-effect: non-scaling-stroke; opacity: 1; stroke-width: 0px; fill: rgb(241, 88, 84); fill-opacity: 1;"/></g><g class="point"><path d="M407.92,400V399.2H442.87V400Z" style="vector-effect: non-scaling-stroke; opacity: 1; stroke-width: 0px; fill: rgb(241, 88, 84); fill-opacity: 1;"/></g><g class="point"><path d="M457.85,400V400H492.8V400Z" style="vector-effect: non-scaling-stroke; opacity: 1; stroke-width: 0px; fill: rgb(241, 88, 84); fill-opacity: 1;"/></g><g class="point"><path d="M507.78,400V400H542.72V400Z" style="vector-effect: non-scaling-stroke; opacity: 1; stroke-width: 0px; fill: rgb(241, 88, 84); fill-opacity: 1;"/></g><g class="point"><path d="M557.7,222V222H592.65V222Z" style="vector-effect: non-scaling-stroke; opacity: 1; stroke-width: 0px; fill: rgb(241, 88, 84); fill-opacity: 1;"/></g><g class="point"><path d="M607.63,135.8V134H642.58V135.8Z" style="vector-effect: non-scaling-stroke; opacity: 1; stroke-width: 0px; fill: rgb(241, 88, 84); fill-opacity: 1;"/></g><g class="point"><path d="M657.56,382V368.9H692.51V382Z" style="vector-effect: non-scaling-stroke; opacity: 1; stroke-width: 0px; fill: rgb(241, 88, 84); fill-opacity: 1;"/></g></g></g><g class="trace bars" shape-rendering="crispEdges" style="opacity: 1;"><g class="points"><g class="point"><path d="M8.49,400V400H43.44V400Z" style="vector-effect: non-scaling-stroke; opacity: 1; stroke-width: 0px; fill: rgb(93, 165, 218); fill-opacity: 1;"/></g><g class="point"><path d="M58.42,400V400H93.37V400Z" style="vector-effect: non-scaling-stroke; opacity: 1; stroke-width: 0px; fill: rgb(93, 165, 218); fill-opacity: 1;"/></g><g class="point"><path d="M108.35,326.1V326.1H143.3V326.1Z" style="vector-effect: non-scaling-stroke; opacity: 1; stroke-width: 0px; fill: rgb(93, 165, 218); fill-opacity: 1;"/></g><g class="point"><path d="M158.27,400V400H193.22V400Z" style="vector-effect: non-scaling-stroke; opacity: 1; stroke-width: 0px; fill: rgb(93, 165, 218); fill-opacity: 1;"/></g><g class="point"><path d="M208.2,20.5V20.5H243.15V20.5Z" style="vector-effect: non-scaling-stroke; opacity: 1; stroke-width: 0px; fill: rgb(93, 165, 218); fill-opacity: 1;"/></g><g class="point"><path d="M258.13,400V392.5H293.08V400Z" style="vector-effect: non-scaling-stroke; opacity: 1; stroke-width: 0px; fill: rgb(93, 165, 218); fill-opacity: 1;"/></g><g class="point"><path d="M308.06,212.8V212.8H343.01V212.8Z" style="vector-effect: non-scaling-stroke; opacity: 1; stroke-width: 0px; fill: rgb(93, 165, 218); fill-opacity: 1;"/></g><g class="point"><path d="M357.99,400V400H392.94V400Z" style="vector-effect: non-scaling-stroke; opacity: 1; stroke-width: 0px; fill: rgb(93, 165, 218); fill-opacity: 1;"/></g><g class="point"><path d="M407.92,399.2V399.2H442.87V399.2Z" style="vector-effect: non-scaling-stroke; opacity: 1; stroke-width: 0px; fill: rgb(93, 165, 218); fill-opacity: 1;"/></g><g class="point"><path d="M457.85,400V400H492.8V400Z" style="vector-effect: non-scaling-stroke; opacity: 1; stroke-width: 0px; fill: rgb(93, 165, 218); fill-opacity: 1;"/></g><g class="point"><path d="M507.78,400V400H542.72V400Z" style="vector-effect: non-scaling-stroke; opacity: 1; stroke-width: 0px; fill: rgb(93, 165, 218); fill-opacity: 1;"/></g><g class="point"><path d="M557.7,222V222H592.65V222Z" style="vector-effect: non-scaling-stroke; opacity: 1; stroke-width: 0px; fill: rgb(93, 165, 218); fill-opacity: 1;"/></g><g class="point"><path d="M607.63,134V134H642.58V134Z" style="vector-effect: non-scaling-stroke; opacity: 1; stroke-width: 0px; fill: rgb(93, 165, 218); fill-opacity: 1;"/></g><g class="point"><path d="M657.56,368.9V368.9H692.51V368.9Z" style="vector-effect: non-scaling-stroke; opacity: 1; stroke-width: 0px; fill: rgb(93, 165, 218); fill-opacity: 1;"/></g></g></g><g class="trace bars" shape-rendering="crispEdges" style="opacity: 1;"><g class="points"><g class="point"><path d="M8.49,400V400H43.44V400Z" style="vector-effect: non-scaling-stroke; opacity: 1; stroke-width: 0px; fill: rgb(250, 164, 58); fill-opacity: 1;"/></g><g class="point"><path d="M58.42,400V400H93.37V400Z" style="vector-effect: non-scaling-stroke; opacity: 1; stroke-width: 0px; fill: rgb(250, 164, 58); fill-opacity: 1;"/></g><g class="point"><path d="M108.35,326.1V326.1H143.3V326.1Z" style="vector-effect: non-scaling-stroke; opacity: 1; stroke-width: 0px; fill: rgb(250, 164, 58); fill-opacity: 1;"/></g><g class="point"><path d="M158.27,400V400H193.22V400Z" style="vector-effect: non-scaling-stroke; opacity: 1; stroke-width: 0px; fill: rgb(250, 164, 58); fill-opacity: 1;"/></g><g class="point"><path d="M208.2,20.5V20.5H243.15V20.5Z" style="vector-effect: non-scaling-stroke; opacity: 1; stroke-width: 0px; fill: rgb(250, 164, 58); fill-opacity: 1;"/></g><g class="point"><path d="M258.13,392.5V392.5H293.08V392.5Z" style="vector-effect: non-scaling-stroke; opacity: 1; stroke-width: 0px; fill: rgb(250, 164, 58); fill-opacity: 1;"/></g><g class="point"><path d="M308.06,212.8V212.8H343.01V212.8Z" style="vector-effect: non-scaling-stroke; opacity: 1; stroke-width: 0px; fill: rgb(250, 164, 58); fill-opacity: 1;"/></g><g class="point"><path d="M357.99,400V400H392.94V400Z" style="vector-effect: non-scaling-stroke; opacity: 1; stroke-width: 0px; fill: rgb(250, 164, 58); fill-opacity: 1;"/></g><g class="point"><path d="M407.92,399.2V396.2H442.87V399.2Z" style="vector-effect: non-scaling-stroke; opacity: 1; stroke-width: 0px; fill: rgb(250, 164, 58); fill-opacity: 1;"/></g><g class="point"><path d="M457.85,400V400H492.8V400Z" style="vector-effect: non-scaling-stroke; opacity: 1; stroke-width: 0px; fill: rgb(250, 164, 58); fill-opacity: 1;"/></g><g class="point"><path d="M507.78,400V400H542.72V400Z" style="vector-effect: non-scaling-stroke; opacity: 1; stroke-width: 0px; fill: rgb(250, 164, 58); fill-opacity: 1;"/></g><g class="point"><path d="M557.7,222V222H592.65V222Z" style="vector-effect: non-scaling-stroke; opacity: 1; stroke-width: 0px; fill: rgb(250, 164, 58); fill-opacity: 1;"/></g><g class="point"><path d="M607.63,134V134H642.58V134Z" style="vector-effect: non-scaling-stroke; opacity: 1; stroke-width: 0px; fill: rgb(250, 164, 58); fill-opacity: 1;"/></g><g class="point"><path d="M657.56,368.9V368.9H692.51V368.9Z" style="vector-effect: non-scaling-stroke; opacity: 1; stroke-width: 0px; fill: rgb(250, 164, 58); fill-opacity: 1;"/></g></g></g><g class="trace bars" shape-rendering="crispEdges" style="opacity: 1;"><g class="points"><g class="point"><path d="M8.49,400V400H43.44V400Z" style="vector-effect: non-scaling-stroke; opacity: 1; stroke-width: 0px; fill: rgb(96, 189, 104); fill-opacity: 1;"/></g><g class="point"><path d="M58.42,400V400H93.37V400Z" style="vector-effect: non-scaling-stroke; opacity: 1; stroke-width: 0px; fill: rgb(96, 189, 104); fill-opacity: 1;"/></g><g class="point"><path d="M108.35,326.1V326.1H143.3V326.1Z" style="vector-effect: non-scaling-stroke; opacity: 1; stroke-width: 0px; fill: rgb(96, 189, 104); fill-opacity: 1;"/></g><g class="point"><path d="M158.27,400V400H193.22V400Z" style="vector-effect: non-scaling-stroke; opacity: 1; stroke-width: 0px; fill: rgb(96, 189, 104); fill-opacity: 1;"/></g><g class="point"><path d="M208.2,20.5V20.5H243.15V20.5Z" style="vector-effect: non-scaling-stroke; opacity: 1; stroke-width: 0px; fill: rgb(96, 189, 104); fill-opacity: 1;"/></g><g class="point"><path d="M258.13,392.5V392.4H293.08V392.5Z" style="vector-effect: non-scaling-stroke; opacity: 1; stroke-width: 0px; fill: rgb(96, 189, 104); fill-opacity: 1;"/></g><g class="point"><path d="M308.06,212.8V212.8H343.01V212.8Z" style="vector-effect: non-scaling-stroke; opacity: 1; stroke-width: 0px; fill: rgb(96, 189, 104); fill-opacity: 1;"/></g><g class="point"><path d="M357.99,400V400H392.94V400Z" style="vector-effect: non-scaling-stroke; opacity: 1; stroke-width: 0px; fill: rgb(96, 189, 104); fill-opacity: 1;"/></g><g class="point"><path d="M407.92,396.2V396.2H442.87V396.2Z" style="vector-effect: non-scaling-stroke; opacity: 1; stroke-width: 0px; fill: rgb(96, 189, 104); fill-opacity: 1;"/></g><g class="point"><path d="M457.85,400V400H492.8V400Z" style="vector-effect: non-scaling-stroke; opacity: 1; stroke-width: 0px; fill: rgb(96, 189, 104); fill-opacity: 1;"/></g><g class="point"><path d="M507.78,400V400H542.72V400Z" style="vector-effect: non-scaling-stroke; opacity: 1; stroke-width: 0px; fill: rgb(96, 189, 104); fill-opacity: 1;"/></g><g class="point"><path d="M557.7,222V222H592.65V222Z" style="vector-effect: non-scaling-stroke; opacity: 1; stroke-width: 0px; fill: rgb(96, 189, 104); fill-opacity: 1;"/></g><g class="point"><path d="M607.63,134V134H642.58V134Z" style="vector-effect: non-scaling-stroke; opacity: 1; stroke-width: 0px; fill: rgb(96, 189, 104); fill-opacity: 1;"/></g><g class="point"><path d="M657.56,368.9V368.9H692.51V368.9Z" style="vector-effect: non-scaling-stroke; opacity: 1; stroke-width: 0px; fill: rgb(96, 189, 104); fill-opacity: 1;"/></g></g></g></g></g><g class="overplot"/><path class="xlines-above crisp" d="" style="fill: none; stroke-width: 1px; stroke: rgb(0, 0, 0); stroke-opacity: 0;"/><path class="ylines-above crisp" d="M57.5,9V409" style="fill: none; stroke-width: 1px; stroke: rgb(232, 232, 232); stroke-opacity: 1;"/><g class="overlines-above"/><g class="xaxislayer-above"><path class="xtick ticks crisp" d="M0,410v4" transform="translate(59,0)" style="stroke: rgb(232, 232, 232); stroke-opacity: 1; stroke-width: 1px;"/><path class="xtick ticks crisp" d="M0,410v4" transform="translate(108.93,0)" style="stroke: rgb(232, 232, 232); stroke-opacity: 1; stroke-width: 1px;"/><path class="xtick ticks crisp" d="M0,410v4" transform="translate(158.86,0)" style="stroke: rgb(232, 232, 232); stroke-opacity: 1; stroke-width: 1px;"/><path class="xtick ticks crisp" d="M0,410v4" transform="translate(208.79,0)" style="stroke: rgb(232, 232, 232); stroke-opacity: 1; stroke-width: 1px;"/><path class="xtick ticks crisp" d="M0,410v4" transform="translate(258.71000000000004,0)" style="stroke: rgb(232, 232, 232); stroke-opacity: 1; stroke-width: 1px;"/><path class="xtick ticks crisp" d="M0,410v4" transform="translate(308.64,0)" style="stroke: rgb(232, 232, 232); stroke-opacity: 1; stroke-width: 1px;"/><path class="xtick ticks crisp" d="M0,410v4" transform="translate(358.57,0)" style="stroke: rgb(232, 232, 232); stroke-opacity: 1; stroke-width: 1px;"/><path class="xtick ticks crisp" d="M0,410v4" transform="translate(408.5,0)" style="stroke: rgb(232, 232, 232); stroke-opacity: 1; stroke-width: 1px;"/><path class="xtick ticks crisp" d="M0,410v4" transform="translate(458.43,0)" style="stroke: rgb(232, 232, 232); stroke-opacity: 1; stroke-width: 1px;"/><path class="xtick ticks crisp" d="M0,410v4" transform="translate(508.36,0)" style="stroke: rgb(232, 232, 232); stroke-opacity: 1; stroke-width: 1px;"/><path class="xtick ticks crisp" d="M0,410v4" transform="translate(558.29,0)" style="stroke: rgb(232, 232, 232); stroke-opacity: 1; stroke-width: 1px;"/><path class="xtick ticks crisp" d="M0,410v4" transform="translate(608.21,0)" style="stroke: rgb(232, 232, 232); stroke-opacity: 1; stroke-width: 1px;"/><path class="xtick ticks crisp" d="M0,410v4" transform="translate(658.14,0)" style="stroke: rgb(232, 232, 232); stroke-opacity: 1; stroke-width: 1px;"/><path class="xtick ticks crisp" d="M0,410v4" transform="translate(708.07,0)" style="stroke: rgb(232, 232, 232); stroke-opacity: 1; stroke-width: 1px;"/><path class="xtick ticks crisp" d="M0,410v4" transform="translate(758,0)" style="stroke: rgb(232, 232, 232); stroke-opacity: 1; stroke-width: 1px;"/><g class="xtick"><text text-anchor="end" x="0" y="422" transform="translate(83.96000000000001,0) rotate(-45,0,416)" style="font-family: 'Open Sans', verdana, arial, sans-serif; font-size: 12px; fill: rgb(102, 102, 102); fill-opacity: 1; white-space: pre;">Dec 17</text></g><g class="xtick"><text text-anchor="end" x="0" y="422" transform="translate(133.89,0) rotate(-45,0,416)" style="font-family: 'Open Sans', verdana, arial, sans-serif; font-size: 12px; fill: rgb(102, 102, 102); fill-opacity: 1; white-space: pre;">Dec 18</text></g><g class="xtick"><text text-anchor="end" x="0" y="422" transform="translate(183.82,0) rotate(-45,0,416)" style="font-family: 'Open Sans', verdana, arial, sans-serif; font-size: 12px; fill: rgb(102, 102, 102); fill-opacity: 1; white-space: pre;">Dec 19</text></g><g class="xtick"><text text-anchor="end" x="0" y="422" transform="translate(233.75,0) rotate(-45,0,416)" style="font-family: 'Open Sans', verdana, arial, sans-serif; font-size: 12px; fill: rgb(102, 102, 102); fill-opacity: 1; white-space: pre;">Dec 20</text></g><g class="xtick"><text text-anchor="end" x="0" y="422" transform="translate(283.68,0) rotate(-45,0,416)" style="font-family: 'Open Sans', verdana, arial, sans-serif; font-size: 12px; fill: rgb(102, 102, 102); fill-opacity: 1; white-space: pre;">Dec 21</text></g><g class="xtick"><text text-anchor="end" x="0" y="422" transform="translate(333.61,0) rotate(-45,0,416)" style="font-family: 'Open Sans', verdana, arial, sans-serif; font-size: 12px; fill: rgb(102, 102, 102); fill-opacity: 1; white-space: pre;">Dec 22</text></g><g class="xtick"><text text-anchor="end" x="0" y="422" transform="translate(383.54,0) rotate(-45,0,416)" style="font-family: 'Open Sans', verdana, arial, sans-serif; font-size: 12px; fill: rgb(102, 102, 102); fill-opacity: 1; white-space: pre;">Dec 23</text></g><g class="xtick"><text text-anchor="end" x="0" y="422" transform="translate(433.46,0) rotate(-45,0,416)" style="font-family: 'Open Sans', verdana, arial, sans-serif; font-size: 12px; fill: rgb(102, 102, 102); fill-opacity: 1; white-space: pre;">Dec 24</text></g><g class="xtick"><text text-anchor="end" x="0" y="422" transform="translate(483.39,0) rotate(-45,0,416)" style="font-family: 'Open Sans', verdana, arial, sans-serif; font-size: 12px; fill: rgb(102, 102, 102); fill-opacity: 1; white-space: pre;">Dec 25</text></g><g class="xtick"><text text-anchor="end" x="0" y="422" transform="translate(533.3199999999999,0) rotate(-45,0,416)" style="font-family: 'Open Sans', verdana, arial, sans-serif; font-size: 12px; fill: rgb(102, 102, 102); fill-opacity: 1; white-space: pre;">Dec 26</text></g><g class="xtick"><text text-anchor="end" x="0" y="422" transform="translate(583.25,0) rotate(-45,0,416)" style="font-family: 'Open Sans', verdana, arial, sans-serif; font-size: 12px; fill: rgb(102, 102, 102); fill-opacity: 1; white-space: pre;">Dec 27</text></g><g class="xtick"><text text-anchor="end" x="0" y="422" transform="translate(633.18,0) rotate(-45,0,416)" style="font-family: 'Open Sans', verdana, arial, sans-serif; font-size: 12px; fill: rgb(102, 102, 102); fill-opacity: 1; white-space: pre;">Dec 28</text></g><g class="xtick"><text text-anchor="end" x="0" y="422" transform="translate(683.11,0) rotate(-45,0,416)" style="font-family: 'Open Sans', verdana, arial, sans-serif; font-size: 12px; fill: rgb(102, 102, 102); fill-opacity: 1; white-space: pre;">Dec 29</text></g><g class="xtick"><text text-anchor="end" x="0" y="422" transform="translate(733.04,0) rotate(-45,0,416)" style="font-family: 'Open Sans', verdana, arial, sans-serif; font-size: 12px; fill: rgb(102, 102, 102); fill-opacity: 1; white-space: pre;">Dec 30</text></g></g><g class="yaxislayer-above"><path class="ytick ticks crisp" d="M57,0h-4" transform="translate(0,409)" style="stroke: rgb(232, 232, 232); stroke-opacity: 1; stroke-width: 1px;"/><path class="ytick ticks crisp" d="M57,0h-4" transform="translate(0,359)" style="stroke: rgb(232, 232, 232); stroke-opacity: 1; stroke-width: 1px;"/><path class="ytick ticks crisp" d="M57,0h-4" transform="translate(0,309)" style="stroke: rgb(232, 232, 232); stroke-opacity: 1; stroke-width: 1px;"/><path class="ytick ticks crisp" d="M57,0h-4" transform="translate(0,259)" style="stroke: rgb(232, 232, 232); stroke-opacity: 1; stroke-width: 1px;"/><path class="ytick ticks crisp" d="M57,0h-4" transform="translate(0,209)" style="stroke: rgb(232, 232, 232); stroke-opacity: 1; stroke-width: 1px;"/><path class="ytick ticks crisp" d="M57,0h-4" transform="translate(0,159)" style="stroke: rgb(232, 232, 232); stroke-opacity: 1; stroke-width: 1px;"/><path class="ytick ticks crisp" d="M57,0h-4" transform="translate(0,109)" style="stroke: rgb(232, 232, 232); stroke-opacity: 1; stroke-width: 1px;"/><path class="ytick ticks crisp" d="M57,0h-4" transform="translate(0,59)" style="stroke: rgb(232, 232, 232); stroke-opacity: 1; stroke-width: 1px;"/><path class="ytick ticks crisp" d="M57,0h-4" transform="translate(0,9)" style="stroke: rgb(232, 232, 232); stroke-opacity: 1; stroke-width: 1px;"/><g class="ytick"><text text-anchor="end" x="50.6" y="4.199999999999999" transform="translate(0,409)" style="font-family: 'Open Sans', verdana, arial, sans-serif; font-size: 12px; fill: rgb(102, 102, 102); fill-opacity: 1; white-space: pre;">0</text></g><g class="ytick"><text text-anchor="end" x="50.6" y="4.199999999999999" transform="translate(0,359)" style="font-family: 'Open Sans', verdana, arial, sans-serif; font-size: 12px; fill: rgb(102, 102, 102); fill-opacity: 1; white-space: pre;">500</text></g><g class="ytick"><text text-anchor="end" x="50.6" y="4.199999999999999" transform="translate(0,309)" style="font-family: 'Open Sans', verdana, arial, sans-serif; font-size: 12px; fill: rgb(102, 102, 102); fill-opacity: 1; white-space: pre;">1,000</text></g><g class="ytick"><text text-anchor="end" x="50.6" y="4.199999999999999" transform="translate(0,259)" style="font-family: 'Open Sans', verdana, arial, sans-serif; font-size: 12px; fill: rgb(102, 102, 102); fill-opacity: 1; white-space: pre;">1,500</text></g><g class="ytick"><text text-anchor="end" x="50.6" y="4.199999999999999" transform="translate(0,209)" style="font-family: 'Open Sans', verdana, arial, sans-serif; font-size: 12px; fill: rgb(102, 102, 102); fill-opacity: 1; white-space: pre;">2,000</text></g><g class="ytick"><text text-anchor="end" x="50.6" y="4.199999999999999" transform="translate(0,159)" style="font-family: 'Open Sans', verdana, arial, sans-serif; font-size: 12px; fill: rgb(102, 102, 102); fill-opacity: 1; white-space: pre;">2,500</text></g><g class="ytick"><text text-anchor="end" x="50.6" y="4.199999999999999" transform="translate(0,109)" style="font-family: 'Open Sans', verdana, arial, sans-serif; font-size: 12px; fill: rgb(102, 102, 102); fill-opacity: 1; white-space: pre;">3,000</text></g><g class="ytick"><text text-anchor="end" x="50.6" y="4.199999999999999" transform="translate(0,59)" style="font-family: 'Open Sans', verdana, arial, sans-serif; font-size: 12px; fill: rgb(102, 102, 102); fill-opacity: 1; white-space: pre;">3,500</text></g><g class="ytick"><text text-anchor="end" x="50.6" y="4.199999999999999" transform="translate(0,9)" style="font-family: 'Open Sans', verdana, arial, sans-serif; font-size: 12px; fill: rgb(102, 102, 102); fill-opacity: 1; white-space: pre;">4,000</text></g></g><g class="overaxes-above"/></g></g><g class="polarlayer"/><g class="ternarylayer"/><g class="geolayer"/><g class="funnelarealayer"/><g class="pielayer"/><g class="treemaplayer"/><g class="sunburstlayer"/><g class="glimages"/><defs id="topdefs-0cf704"><g class="clips"/><clipPath id="legend0cf704"><rect width="141" height="105" x="0" y="0"/></clipPath></defs><g class="layer-above"><g class="imagelayer"/><g class="shapelayer"><path data-index="0" fill-rule="evenodd" d="M59,9L758,9" clip-path="url('#clip0cf704xy')" style="opacity: 1; stroke: rgb(232, 232, 232); stroke-opacity: 1; fill: rgb(0, 0, 0); fill-opacity: 0; stroke-width: 2px;"/></g></g><g class="infolayer"><g class="legend" pointer-events="all" transform="translate(759, 9)"><rect class="bg" shape-rendering="crispEdges" style="stroke: rgb(68, 68, 68); stroke-opacity: 1; fill: rgb(255, 255, 255); fill-opacity: 1; stroke-width: 0px;" width="141" height="105" x="0" y="0"/><g class="scrollbox" transform="translate(0, 0)" clip-path="url('#legend0cf704')"><g class="groups"><g class="traces" transform="translate(0, 14.5)" style="opacity: 1;"><text class="legendtext user-select-none" text-anchor="start" x="40" y="4.680000000000001" style="font-family: 'Open Sans', verdana, arial, sans-serif; font-size: 12px; fill: rgb(102, 102, 102); fill-opacity: 1; white-space: pre;">Java</text><g class="layers" style="opacity: 1;"><g class="legendfill"/><g class="legendlines"/><g class="legendsymbols"><g class="legendpoints"><path class="legendundefined" d="M6,6H-6V-6H6Z" transform="translate(20,0)" style="stroke-width: 0px; fill: rgb(62, 64, 83); fill-opacity: 1;"/></g></g></g><rect class="legendtoggle" pointer-events="all" x="0" y="-9.5" width="135.28125" height="19" style="cursor: pointer; fill: rgb(0, 0, 0); fill-opacity: 0;"/></g><g class="traces" transform="translate(0, 33.5)" style="opacity: 1;"><text class="legendtext user-select-none" text-anchor="start" x="40" y="4.680000000000001" style="font-family: 'Open Sans', verdana, arial, sans-serif; font-size: 12px; fill: rgb(102, 102, 102); fill-opacity: 1; white-space: pre;">CSS</text><g class="layers" style="opacity: 1;"><g class="legendfill"/><g class="legendlines"/><g class="legendsymbols"><g class="legendpoints"><path class="legendundefined" d="M6,6H-6V-6H6Z" transform="translate(20,0)" style="stroke-width: 0px; fill: rgb(241, 88, 84); fill-opacity: 1;"/></g></g></g><rect class="legendtoggle" pointer-events="all" x="0" y="-9.5" width="135.28125" height="19" style="cursor: pointer; fill: rgb(0, 0, 0); fill-opacity: 0;"/></g><g class="traces" transform="translate(0, 52.5)" style="opacity: 1;"><text class="legendtext user-select-none" text-anchor="start" x="40" y="4.680000000000001" style="font-family: 'Open Sans', verdana, arial, sans-serif; font-size: 12px; fill: rgb(102, 102, 102); fill-opacity: 1; white-space: pre;">Shell Script (Zsh)</text><g class="layers" style="opacity: 1;"><g class="legendfill"/><g class="legendlines"/><g class="legendsymbols"><g class="legendpoints"><path class="legendundefined" d="M6,6H-6V-6H6Z" transform="translate(20,0)" style="stroke-width: 0px; fill: rgb(93, 165, 218); fill-opacity: 1;"/></g></g></g><rect class="legendtoggle" pointer-events="all" x="0" y="-9.5" width="135.28125" height="19" style="cursor: pointer; fill: rgb(0, 0, 0); fill-opacity: 0;"/></g><g class="traces" transform="translate(0, 71.5)" style="opacity: 1;"><text class="legendtext user-select-none" text-anchor="start" x="40" y="4.680000000000001" style="font-family: 'Open Sans', verdana, arial, sans-serif; font-size: 12px; fill: rgb(102, 102, 102); fill-opacity: 1; white-space: pre;">Haskell</text><g class="layers" style="opacity: 1;"><g class="legendfill"/><g class="legendlines"/><g class="legendsymbols"><g class="legendpoints"><path class="legendundefined" d="M6,6H-6V-6H6Z" transform="translate(20,0)" style="stroke-width: 0px; fill: rgb(250, 164, 58); fill-opacity: 1;"/></g></g></g><rect class="legendtoggle" pointer-events="all" x="0" y="-9.5" width="135.28125" height="19" style="cursor: pointer; fill: rgb(0, 0, 0); fill-opacity: 0;"/></g><g class="traces" transform="translate(0, 90.5)" style="opacity: 1;"><text class="legendtext user-select-none" text-anchor="start" x="40" y="4.680000000000001" style="font-family: 'Open Sans', verdana, arial, sans-serif; font-size: 12px; fill: rgb(102, 102, 102); fill-opacity: 1; white-space: pre;">Python</text><g class="layers" style="opacity: 1;"><g class="legendfill"/><g class="legendlines"/><g class="legendsymbols"><g class="legendpoints"><path class="legendundefined" d="M6,6H-6V-6H6Z" transform="translate(20,0)" style="stroke-width: 0px; fill: rgb(96, 189, 104); fill-opacity: 1;"/></g></g></g><rect class="legendtoggle" pointer-events="all" x="0" y="-9.5" width="135.28125" height="19" style="cursor: pointer; fill: rgb(0, 0, 0); fill-opacity: 0;"/></g></g></g><rect class="scrollbar" rx="20" ry="3" width="0" height="0" style="fill: rgb(128, 139, 164); fill-opacity: 1;" x="0" y="0"/></g><g class="g-gtitle"/><g class="g-xtitle"/><g class="g-ytitle" transform="translate(14.8154296875,0)"><text class="ytitle" transform="rotate(-90,0.18437500000000284,209)" x="0.18437500000000284" y="209" text-anchor="middle" style="font-family: 'Open Sans', verdana, arial, sans-serif; font-size: 14px; fill: rgb(102, 102, 102); opacity: 1; font-weight: normal; white-space: pre;">XP</text></g></g></svg>